<?xml version="1.0" encoding="UTF-8"?><svg id="Layer_1" xmlns="http://www.w3.org/2000/svg" xmlns:xlink="http://www.w3.org/1999/xlink" viewBox="0 0 1182.84 1244.6"><defs><style>.cls-1{clip-path:url(#clippath);}.cls-2{fill:none;}</style><symbol id="c" viewBox="0 0 12.38 19.66"><path d="M7.33,19.66v-4.34h5.05v-3.5H7.33V5.31c0-.71,.14-1.19,.42-1.44s.84-.38,1.67-.38h2.52V0H7.75c-1.94,0-3.31,.4-4.12,1.2-.8,.81-1.2,2.18-1.2,4.11v6.5H0v3.5H2.42v4.34H7.33Z"/></symbol><clipPath id="clippath"><rect class="cls-2" x="482.84" y="544.6" width="700" height="700"/></clipPath></defs><g><path d="M3.01,7.48L7.48,3.01l.77,.77L3.78,8.25l-.77-.77Z"/><path d="M10.72,11.26H.54c-.14,0-.28-.06-.39-.16-.1-.1-.16-.24-.16-.39V.54C0,.4,.06,.26,.16,.16c.1-.1,.24-.16,.39-.16H10.72c.14,0,.28,.06,.39,.16,.1,.1,.16,.24,.16,.39V10.72c0,.14-.06,.28-.16,.39-.1,.1-.24,.16-.39,.16h0ZM1.09,10.17H10.17V1.09H1.09V10.17Z"/><path d="M3.01,3.78l.77-.77,4.48,4.48-.77,.77L3.01,3.78Z"/></g><g class="cls-1"><use width="12.38" height="19.66" transform="translate(483.22 544.6) scale(1 -1)" xlink:href="#c"/></g></svg>