<?xml version="1.0" encoding="UTF-8"?><svg id="Layer_1" xmlns="http://www.w3.org/2000/svg" viewBox="0 0 983.55 46.69"><defs><style>.cls-1{fill:#fff;}.cls-2{letter-spacing:-.02em;}.cls-3{font-family:ArialMT, Arial;font-size:10.41px;}.cls-3,.cls-4{fill:#231f20;}.cls-5{letter-spacing:0em;}.cls-6{fill:none;stroke:#231f20;stroke-miterlimit:10;stroke-width:.77px;}</style></defs><rect class="cls-1" width="983.55" height="46.69"/><text class="cls-3" transform="translate(212.67 24.8)"><tspan x="0" y="0">ELECTRIC</tspan></text><text class="cls-3" transform="translate(277.85 24.8)"><tspan x="0" y="0">3 DOOR</tspan></text><text class="cls-3" transform="translate(333.5 24.8)"><tspan x="0" y="0">5 DOOR</tspan></text><text class="cls-3" transform="translate(391.05 24.8)"><tspan x="0" y="0">COUNT</tspan><tspan class="cls-2" x="37.02" y="0">R</tspan><tspan class="cls-5" x="44.35" y="0">YMAN</tspan></text><text class="cls-3" transform="translate(485.34 24.8)"><tspan x="0" y="0">CONVE</tspan><tspan class="cls-2" x="37.03" y="0">R</tspan><tspan x="44.36" y="0">TIBLE</tspan></text><text class="cls-3" transform="translate(578.12 24.8)"><tspan x="0" y="0">JCW</tspan></text><text class="cls-3" transform="translate(750.64 24.8)"><tspan x="0" y="0">Shop Now</tspan></text><text class="cls-3" transform="translate(838.41 24.8)"><tspan x="0" y="0">Build &amp; Price</tspan></text><text class="cls-3" transform="translate(934.68 24.8)"><tspan x="0" y="0">MENU</tspan></text><g><rect class="cls-4" x="909.62" y="16.88" width="16.36" height="1.15"/><rect class="cls-4" x="909.62" y="21.45" width="16.36" height="1.15"/><rect class="cls-4" x="909.62" y="26.02" width="16.36" height="1.15"/></g><g><path d="M27.7,15.71c2.47,0,4.94-.01,7.41,0,.54,0,.91-.14,1.25-.6,4.69-6.27,14.08-6.27,18.78,0,.34,.45,.7,.61,1.24,.6,4.91-.01,9.83,0,14.74,0,.21,0,.42,0,.63,.01,.32,.03,.46,.17,.2,.45-.75,.8-1.42,1.53-2.75,1.49-3.92-.12-7.85-.04-11.78-.04-.82,0-.76-.01-.58,.81,.16,.74,.52,.95,1.26,.94,3.22-.04,6.44-.02,9.66-.01,.22,0,.53-.12,.63,.15,.08,.21-.21,.33-.33,.5-.67,.9-1.52,1.22-2.67,1.17-2.39-.1-4.8,0-7.19-.04-.72-.01-.79,.3-.79,.89,0,.61,.11,.89,.81,.87,2-.04,4-.02,6-.01,.22,0,.52-.12,.63,.15,.09,.23-.21,.33-.33,.49-.69,.98-1.63,1.26-2.81,1.17-1.33-.1-2.68-.03-4.02-.02-.44,0-1.19,1.2-1,1.58,.11,.22,.33,.14,.51,.14,1.2,0,2.4,0,3.6,0,.18,0,.42-.08,.5,.13,.09,.21-.15,.32-.26,.46-.78,.98-1.71,1.54-3.04,1.32-1.53-.25-2.6,.28-3.72,1.51-4.88,5.37-13.21,4.98-17.74-.71-.51-.64-1.01-.9-1.78-.82-.47,.05-.95-.06-1.41,.02-1.36,.25-2.22-.47-3-1.41-.09-.11-.23-.2-.18-.35,.07-.21,.27-.15,.43-.15,1.22,0,2.45-.02,3.67,0,.49,0,.62-.11,.44-.61-.39-1.12-.37-1.13-1.53-1.13-1.48,0-2.96,0-4.44,0-.51,0-1.92-1.04-2.08-1.5-.07-.19,.03-.26,.19-.28,.19-.02,.38-.01,.56-.01,1.9,0,3.81-.02,5.71,.01,.65,.01,.98-.07,.97-.86,0-.74-.25-.9-.94-.9-2.66,.04-5.31,.02-7.97,.01-.51,0-1.92-1.04-2.08-1.51-.07-.2,.03-.26,.19-.28,.19-.02,.38-.02,.56-.02,3.22,0,6.44,0,9.66,0,.69,0,1.42-.86,1.3-1.52-.03-.15-.12-.19-.24-.2-.19-.01-.38,0-.56,0-4.09,0-8.18,0-12.27,0-.64,0-2.05-.97-2.28-1.55-.09-.23,.02-.31,.21-.33,.21-.02,.42-.02,.63-.02,2.47,0,4.94,0,7.41,0Zm27.83,6.31c0-5.33-4.4-9.74-9.74-9.76-5.38-.02-9.82,4.38-9.83,9.74,0,5.33,4.4,9.74,9.74,9.76,5.38,.02,9.82-4.38,9.83-9.74Z"/><path d="M42.31,21.69c-.26,.79-.54,1.58-.77,2.38-.13,.48-.41,.61-.87,.61-.47,0-.74-.15-.87-.62-.23-.8-.5-1.59-.85-2.37,0,.79-.01,1.58,0,2.37,0,.47-.22,.6-.65,.6-.42,0-.59-.18-.58-.6,0-1.31,0-2.63,0-3.94,0-.33-.1-.8,.44-.77,.51,.02,1.18-.32,1.44,.47,.31,.94,.6,1.88,.9,2.81,.03,.11,.09,.21,.19,.44,.36-1.12,.68-2.11,1-3.11,.19-.58,1.24-.92,1.73-.58,.18,.13,.17,.33,.17,.51,0,1.38,0,2.77,0,4.15,0,.41-.14,.6-.57,.6-.42,0-.67-.11-.66-.59,.02-.79,0-1.59,0-2.38-.02,0-.05-.01-.07-.02Z"/><path d="M50.28,22.5c0-.84,.01-1.68,0-2.52,0-.43,.13-.65,.6-.65,.46,0,.63,.2,.62,.64,0,1.27,0,2.54,0,3.8,0,.32,.16,.79-.36,.86-.51,.07-1.07,.2-1.41-.45-.46-.91-.99-1.8-1.6-2.67,0,.81,0,1.62,0,2.43,0,.42-.05,.72-.6,.73-.58,.01-.64-.3-.64-.76,.01-1.24,0-2.49,.01-3.73,0-.3-.15-.75,.32-.81,.48-.06,1.04-.23,1.37,.38,.43,.81,.88,1.6,1.33,2.4,.07,.12,.15,.24,.22,.35,.04,0,.09-.01,.13-.02Z"/><path d="M53.76,22.01c0,.7,0,1.41,0,2.11,0,.44-.23,.55-.62,.55-.4,0-.71-.07-.71-.55,0-1.41,0-2.82,0-4.23,0-.49,.3-.56,.71-.55,.39,0,.63,.11,.62,.55-.01,.7,0,1.41,0,2.11Z"/><path d="M45.87,22.01c0,.71-.01,1.41,0,2.12,0,.45-.23,.55-.62,.55-.39,0-.62-.11-.62-.55,.01-1.41,.01-2.82,0-4.23,0-.45,.23-.55,.62-.55,.39,0,.63,.11,.62,.55-.01,.7,0,1.41,0,2.12Z"/></g><g><path d="M827.46,19.84c.13,0,.22,.05,.29,.13,.12,.14,.27,.23,.46,.26,.26,.04,.48-.05,.65-.25,.13-.15,.26-.18,.44-.11,.27,.1,.51,.25,.74,.43,.14,.12,.18,.24,.12,.42-.15,.43,.12,.87,.56,.95,.16,.03,.26,.13,.29,.29,.06,.32,.06,.63,0,.95-.03,.14-.14,.25-.29,.27-.39,.06-.65,.37-.63,.76,0,.07,.02,.14,.05,.21,.06,.16,.02,.3-.11,.41-.21,.17-.45,.31-.7,.42-.16,.06-.31,.03-.41-.11-.31-.39-.85-.38-1.15,.01-.11,.14-.25,.18-.42,.12-.28-.11-.54-.25-.77-.44-.13-.11-.16-.25-.1-.42,.18-.43-.06-.89-.51-.99-.01,0-.02,0-.03,0-.22-.03-.32-.13-.35-.35-.04-.29-.03-.58,.02-.88,.03-.16,.15-.27,.31-.29,.47-.05,.75-.51,.6-.95-.07-.19-.03-.32,.13-.44,.21-.16,.45-.29,.7-.39,.04-.02,.09-.03,.12-.03Zm1.76,2.6c0-.5-.41-.91-.9-.92-.5,0-.92,.4-.93,.91,0,.5,.4,.92,.9,.92,.51,0,.92-.4,.93-.91Z"/><path d="M832.8,23.49c-.08,.32-.11,.64-.2,.96-.37,1.21-1.12,2.16-2.09,2.94-.63,.5-1.32,.9-2.05,1.23-.13,.06-.26,.07-.39,0-1.26-.54-2.34-1.31-3.2-2.39-.08-.1-.15-.14-.28-.14-1.87,0-3.74,0-5.61,0-.16,0-.2,.05-.19,.2,0,.21,.03,.42-.03,.63-.13,.46-.54,.78-1.02,.78-.38,0-.77,0-1.15,0-.55,0-1.01-.44-1.03-.99-.01-.42,0-.84,0-1.27,0-.1-.02-.18-.09-.25-.44-.56-.64-1.19-.64-1.9,0-.42,0-.83,0-1.25-.01-.68,.03-1.34,.48-1.94-.28,0-.52,0-.76,0-.48,0-.82-.34-.82-.82,0-.18-.03-.37,.03-.55,.11-.33,.4-.56,.75-.56,.25,0,.51-.03,.76,.02,.36,.06,.48,.14,.96,.57,.08-.17,.16-.33,.24-.5,.32-.66,.63-1.32,.95-1.98,.31-.63,.84-.9,1.53-.9,2.04,0,4.08,0,6.13,0,.29,0,.57,0,.86,.01,.61,.05,1.04,.37,1.31,.91,.11,.21,.21,.42,.31,.63,.04,.08,.08,.11,.17,.09,.78-.13,1.52,.03,2.22,.36,.64,.3,1.27,.61,1.92,.9,.46,.21,.77,.55,.9,1.04,0,.02,.02,.03,.03,.04v4.1Zm-8.42,2c-.16-.29-.28-.57-.38-.86-.03-.08-.09-.07-.15-.07-.31,0-.62,0-.93,0-.81,0-1.61,0-2.42,0-.22,0-.34-.11-.33-.31,0-.18,.13-.28,.34-.29,.92,0,1.84,0,2.76,0,.19,0,.38,0,.58,0-.02-.14-.05-.27-.05-.4,0-.13-.05-.17-.18-.17-.61,0-1.23,0-1.84,0-.43,0-.86,0-1.28,0-.24,0-.38-.19-.3-.4,.06-.17,.2-.2,.36-.2,1.01,0,2.01,0,3.02,0,.15,0,.19-.04,.19-.19,0-.75,0-1.5,0-2.25,0-.14-.03-.18-.18-.18-2.5,0-5,0-7.5,0-.09,0-.15,.02-.21,.09-.23,.29-.42,.61-.45,.98-.08,.75-.08,1.52-.01,2.27,.11,1.26,.93,1.96,2.2,1.96,1.95,0,3.9,0,5.85,0h.95Zm-7.91-5.88c.06,0,.1,0,.14,0,2.32,0,4.64,0,6.96,0,.02,0,.04,0,.06,0,.08,0,.12-.02,.13-.11,.05-.54,.35-.92,.83-1.15,.78-.38,1.57-.74,2.35-1.11,.1-.05,.1-.08,.06-.16-.07-.14-.14-.29-.21-.44-.2-.45-.54-.66-1.04-.66-.82,.01-1.64,0-2.46,0-1.46,0-2.93,0-4.39,0-.41,0-.73,.16-.91,.53-.5,1.02-.97,2.06-1.51,3.09Zm7.87,1.83c0,.51,0,1.02,0,1.53,0,.82,.2,1.6,.61,2.31,.74,1.29,1.87,2.15,3.22,2.73,.09,.04,.17,.02,.25-.02,.61-.27,1.17-.62,1.7-1.03,1.35-1.04,2.07-2.41,2.14-4.11,.04-1.07,0-2.13,0-3.2,0-.36-.2-.61-.51-.76-.74-.36-1.48-.72-2.23-1.05-.7-.31-1.43-.36-2.16-.1-.9,.33-1.75,.79-2.61,1.21-.27,.13-.4,.39-.4,.7,0,.6,0,1.19,0,1.79Zm-8.23,4.28c0,.33-.02,.63,0,.91,.02,.27,.21,.43,.49,.43,.37,0,.73,0,1.1,0,.29,0,.48-.18,.49-.47,0-.12,0-.24,0-.35,.02-.16-.05-.19-.2-.19-.64,.01-1.28,.06-1.89-.33Zm-.98-6.2c.19,0,.37,0,.56,0,.14,0,.22-.11,.16-.22-.18-.34-.44-.55-.83-.56-.14,0-.27,0-.41,0-.22,0-.29,.07-.29,.29,0,.06,0,.12,0,.19,0,.2,.09,.3,.3,.3,.17,0,.35,0,.52,0Z"/><path d="M817.82,23.15c-.37-.02-.74,.02-1.11-.03-.39-.06-.56-.24-.56-.63,0-.2,0-.41,0-.61,.02-.44,.38-.73,.81-.65,.52,.11,1.04,.22,1.56,.34,.53,.12,.89,.65,.82,1.19-.03,.21-.13,.32-.36,.36-.38,.07-.77,.01-1.15,.04Zm-.11-.63s0,0,0,.01c.29,0,.58,0,.87,0,.13,0,.15-.05,.09-.15-.08-.16-.21-.26-.38-.3-.47-.1-.94-.2-1.41-.31-.14-.03-.18,.03-.18,.15,0,.14,0,.27,0,.41-.01,.14,.03,.19,.17,.18,.28-.01,.56,0,.84,0Z"/></g><g><g><path d="M745,19.77c-.09,.22-.12,.44-.18,.67-.29,1.14-.57,2.29-.85,3.43-.07,.27-.21,.38-.49,.38-2.17,0-4.33,0-6.5,0-.28,0-.42-.11-.48-.38-.45-1.87-.9-3.75-1.34-5.62-.02-.08-.05-.1-.13-.1-.31,0-.63,0-.94,0-.25,0-.43-.17-.44-.4,0-.24,.16-.44,.41-.44,.48,0,.95,0,1.43,0,.2,0,.35,.12,.4,.32,.12,.49,.24,.97,.35,1.46,.02,.1,.05,.13,.16,.13,2.68,0,5.36,0,8.04,0,.26,0,.46,.07,.56,.33v.22Zm-4.75,.31c-1.22,0-2.45,0-3.67,0-.06,0-.12-.02-.09,.09,.25,1.05,.5,2.1,.75,3.15,.02,.07,.05,.09,.12,.09,1.91,0,3.83,0,5.74,0,.08,0,.11-.02,.13-.1,.25-1.04,.51-2.07,.77-3.11,.03-.12,0-.12-.1-.12-1.22,0-2.43,0-3.65,0Z"/><path d="M742.63,27.7c-.78,0-1.42-.64-1.41-1.42,0-.78,.65-1.42,1.42-1.41,.79,0,1.41,.64,1.41,1.42,0,.79-.64,1.42-1.42,1.41Z"/><path d="M737.49,27.7c-.79,0-1.41-.64-1.41-1.42,0-.78,.64-1.42,1.42-1.41,.78,0,1.42,.65,1.42,1.42,0,.78-.64,1.42-1.42,1.41Z"/></g><rect class="cls-6" x="730.5" y="14.58" width="9.75" height="14.88" rx="1.12" ry="1.12"/><rect class="cls-1" x="738.9" y="20.08" width="3.27" height="3.33"/></g></svg>